<?xml version="1.0" encoding="UTF-8" standalone="no"?>
<!-- Uploaded to: SVG Repo, www.svgrepo.com, Generator: SVG Repo Mixer Tools -->

<svg
   width="128"
   height="128"
   viewBox="0 0 3.84 3.84"
   fill="none"
   version="1.1"
   id="svg10"
   sodipodi:docname="icon-bw.svg"
   inkscape:version="1.2.2 (b0a8486541, 2022-12-01)"
   inkscape:export-filename="icon.png"
   inkscape:export-xdpi="96"
   inkscape:export-ydpi="96"
   xmlns:inkscape="http://www.inkscape.org/namespaces/inkscape"
   xmlns:sodipodi="http://sodipodi.sourceforge.net/DTD/sodipodi-0.dtd"
   xmlns="http://www.w3.org/2000/svg"
   xmlns:svg="http://www.w3.org/2000/svg">
  <defs
     id="defs14" />
  <sodipodi:namedview
     id="namedview12"
     pagecolor="#ffffff"
     bordercolor="#000000"
     borderopacity="0.25"
     inkscape:showpageshadow="2"
     inkscape:pageopacity="0.0"
     inkscape:pagecheckerboard="0"
     inkscape:deskcolor="#d1d1d1"
     showgrid="false"
     inkscape:zoom="5.135"
     inkscape:cx="66.30964"
     inkscape:cy="63.777994"
     inkscape:window-width="1485"
     inkscape:window-height="1221"
     inkscape:window-x="4334"
     inkscape:window-y="63"
     inkscape:window-maximized="0"
     inkscape:current-layer="g178" />
  <g
     id="g178"
     transform="matrix(0.1595352,0,0,0.1595352,0.03877503,0.00575956)">
    <path
       d="m 16.415,17.9741 c -0.2085,0.6385 -0.5751,1.2161 -1.068,1.6778 -0.7313,0.6849 -1.8589,0.987 -4.1139,1.5913 C 8.97798,21.8474 7.85044,22.1495 6.87466,21.922 6.10421,21.7424 5.40432,21.3383 4.86351,20.7609 4.17859,20.0296 3.87647,18.9021 3.27222,16.647 L 2.75458,14.7151 C 2.15033,12.46 1.84821,11.3325 2.07573,10.3567 2.25537,9.58627 2.65945,8.88638 3.23687,8.34557 3.96815,7.66065 5.09569,7.35853 7.35077,6.75428 7.77741,6.63996 8.16368,6.53646 8.51621,6.44531"
       stroke="#1c274c"
       stroke-width="1.5"
       id="path4"
       style="stroke:#1f2933;stroke-opacity:1;fill:none;fill-opacity:1;stroke-width:1.22230078;stroke-dasharray:none" />
    <path
       d="m 20.3116,12.6473 0.5177,-1.9319 C 21.4335,8.46034 21.7356,7.3328 21.5081,6.35703 21.3285,5.58657 20.9244,4.88668 20.347,4.34587 19.6157,3.66095 18.4881,3.35883 16.2331,2.75458 13.978,2.15033 12.8504,1.84821 11.8747,2.07573 11.1042,2.25537 10.4043,2.65945 9.86351,3.23687 9.27709,3.86298 8.97128,4.77957 8.51621,6.44561 8.43979,6.7254 8.35915,7.02633 8.27227,7.35057 l -5e-5,2e-4 -0.51764,1.93186 C 7.15033,11.5377 6.84821,12.6652 7.07573,13.641 c 0.17964,0.7705 0.58372,1.4704 1.16114,2.0112 0.73128,0.6849 1.85883,0.987 4.11393,1.5913 v 0 c 2.0326,0.5446 3.1491,0.8438 4.0642,0.7309 0.1002,-0.0123 0.1979,-0.0296 0.2942,-0.0521 0.7704,-0.1796 1.4703,-0.5837 2.0111,-1.1611 0.6849,-0.7313 0.9871,-1.8588 1.5913,-4.1139 z"
       stroke="#1c274c"
       stroke-width="1.5"
       id="path2"
       style="stroke:#1f2933;stroke-opacity:1;fill:none;fill-opacity:1;stroke-width:1.22230078;stroke-dasharray:none" />
    <path
       d="m 11.7769,10 4.8296,1.2941"
       stroke="#1c274c"
       stroke-width="1.5"
       stroke-linecap="round"
       id="path6"
       style="stroke:#3367d6;stroke-opacity:1;stroke-width:1.22230078;stroke-dasharray:none" />
    <path
       d="m 11,12.8975 2.8978,0.7764"
       stroke="#1c274c"
       stroke-width="1.5"
       stroke-linecap="round"
       id="path8"
       style="stroke:#3367d6;stroke-opacity:1;stroke-width:1.22230078;stroke-dasharray:none" />
  </g>
</svg>
